<svg width="58" height="16" viewBox="0 0 58 16" fill="none" xmlns="http://www.w3.org/2000/svg">
<path d="M2.57747 7.78703C2.57747 8.82821 2.70489 9.73106 2.95973 10.4956C3.22184 11.2601 3.56405 11.8935 3.98635 12.3959C4.40865 12.8983 4.88555 13.2733 5.41707 13.5208C5.95586 13.7611 6.49829 13.8812 7.04437 13.8812C7.60501 13.8812 8.11468 13.7684 8.57338 13.5427C9.03208 13.3097 9.43254 13.0039 9.77474 12.6253C10.1242 12.2466 10.4118 11.8171 10.6375 11.3365C10.8633 10.8487 11.0271 10.3499 11.129 9.84027H13.7502C13.5827 10.7067 13.3133 11.5149 12.942 12.2648C12.5779 13.0075 12.1119 13.6592 11.544 14.2198C10.9834 14.7732 10.3245 15.21 9.56724 15.5304C8.81729 15.8435 7.97634 16 7.04437 16C5.96678 16 4.99477 15.818 4.12833 15.4539C3.26189 15.0826 2.52287 14.5474 1.91126 13.8485C1.29966 13.1422 0.826394 12.2794 0.491468 11.2601C0.163823 10.2407 0 9.07941 0 7.77611C0 6.76405 0.156542 5.79204 0.469625 4.86007C0.782708 3.92082 1.23777 3.09079 1.83481 2.36997C2.43914 1.64915 3.17452 1.07395 4.04096 0.644369C4.91468 0.21479 5.90489 0 7.0116 0C7.95813 0 8.80273 0.134699 9.54539 0.404096C10.2953 0.673493 10.9506 1.04846 11.5113 1.52901C12.0719 2.00228 12.5415 2.56655 12.9201 3.22184C13.306 3.87713 13.6118 4.59431 13.8375 5.37338H11.1618C10.7759 4.28851 10.2444 3.48032 9.56724 2.94881C8.8901 2.41001 8.03823 2.14061 7.0116 2.14061C6.3636 2.14061 5.76655 2.28987 5.22048 2.5884C4.68168 2.88692 4.2157 3.29465 3.82253 3.8116C3.42935 4.32127 3.12355 4.91832 2.90512 5.60273C2.68669 6.28714 2.57747 7.01524 2.57747 7.78703Z" fill="white"/>
<path d="M18.2717 0.393174V2.95973H15.6942V0.393174H18.2717ZM18.2717 4.49966V15.6177H15.6942V4.49966H18.2717Z" fill="white"/>
<path d="M20.6635 4.49966H22.5638L22.9898 5.86485C23.3247 5.34061 23.6705 4.94744 24.0273 4.68532C24.3914 4.41593 24.7882 4.28123 25.2177 4.28123C25.3488 4.28123 25.56 4.31035 25.8512 4.3686C26.1424 4.41957 26.4919 4.55791 26.8997 4.78362V7.0116C26.6303 6.90967 26.3973 6.82958 26.2007 6.77133C26.0114 6.71308 25.8512 6.67304 25.7201 6.65119C25.5964 6.62207 25.4981 6.60751 25.4253 6.60751C25.3597 6.60023 25.3124 6.59659 25.2833 6.59659C24.9629 6.59659 24.6753 6.66576 24.4205 6.8041C24.1656 6.93515 23.9509 7.11354 23.7761 7.33925C23.6014 7.55768 23.4667 7.81251 23.372 8.10375C23.2774 8.39499 23.23 8.69716 23.23 9.01024V15.6177H20.6635V4.49966Z" fill="white"/>
<path d="M34.4792 8.45324C34.2753 7.73242 34.0023 7.21183 33.6601 6.89147C33.3251 6.56382 32.8919 6.4 32.3604 6.4C31.96 6.4 31.6032 6.49829 31.2901 6.69488C30.9843 6.88419 30.7222 7.13902 30.5038 7.45939C30.2926 7.77975 30.1324 8.15108 30.0232 8.57338C29.914 8.9884 29.8594 9.42526 29.8594 9.88396C29.8594 10.3718 29.914 10.8451 30.0232 11.3038C30.1397 11.7625 30.3035 12.1738 30.5147 12.5379C30.7331 12.8947 30.9916 13.1823 31.2901 13.4007C31.5959 13.6191 31.9381 13.7283 32.3167 13.7283C32.608 13.7283 32.8701 13.6628 33.1031 13.5317C33.3433 13.3934 33.5509 13.2114 33.7256 12.9857C33.9076 12.7527 34.0569 12.4869 34.1734 12.1884C34.2899 11.8826 34.3809 11.5586 34.4464 11.2164H37.1113C37.0239 11.9372 36.8491 12.5816 36.587 13.1495C36.3249 13.7174 35.9864 14.2016 35.5713 14.602C35.1563 15.0025 34.6685 15.3083 34.1079 15.5195C33.5472 15.7306 32.9247 15.8362 32.2403 15.8362C31.3884 15.8362 30.6494 15.6687 30.0232 15.3338C29.4043 14.9916 28.891 14.5438 28.4833 13.9904C28.0755 13.4298 27.7734 12.7927 27.5768 12.0792C27.3802 11.3656 27.2819 10.6339 27.2819 9.88396C27.2819 9.06849 27.4021 8.31854 27.6423 7.63413C27.8899 6.94972 28.2357 6.35995 28.6799 5.86485C29.124 5.36246 29.6592 4.97292 30.2853 4.69625C30.9115 4.41957 31.6105 4.28123 32.3823 4.28123C33.0594 4.28123 33.6637 4.39044 34.1952 4.60887C34.7267 4.82002 35.1891 5.11126 35.5823 5.48259C35.9754 5.85392 36.2994 6.29443 36.5543 6.8041C36.8091 7.31377 36.9948 7.86348 37.1113 8.45324H34.4792Z" fill="white"/>
<path d="M41.4253 0.393174V15.6177H38.8478V0.393174H41.4253Z" fill="white"/>
<path d="M45.9031 10.7468C45.9395 11.1472 46.0305 11.5295 46.1761 11.8935C46.3217 12.2503 46.5074 12.567 46.7331 12.8437C46.9588 13.1131 47.2209 13.3279 47.5195 13.4881C47.818 13.6482 48.1383 13.7283 48.4805 13.7283C49.114 13.7283 49.6382 13.5572 50.0532 13.215C50.4755 12.8655 50.8105 12.3449 51.058 11.6532H53.4389C53.2933 12.3158 53.0567 12.9056 52.729 13.4225C52.4086 13.9395 52.0264 14.3763 51.5823 14.7331C51.1381 15.0899 50.6466 15.3629 50.1079 15.5522C49.5763 15.7415 49.0266 15.8362 48.4587 15.8362C47.6578 15.8362 46.937 15.676 46.2962 15.3556C45.6555 15.0353 45.1094 14.6057 44.658 14.0669C44.2066 13.5281 43.8571 12.9019 43.6096 12.1884C43.3693 11.4676 43.2491 10.7104 43.2491 9.91672C43.2491 9.17406 43.3693 8.46416 43.6096 7.78703C43.8571 7.10262 44.2066 6.50193 44.658 5.98498C45.1094 5.46075 45.6555 5.04573 46.2962 4.73993C46.9443 4.43413 47.6687 4.28123 48.4696 4.28123C49.2414 4.28123 49.9404 4.42321 50.5666 4.70717C51.1927 4.98385 51.7279 5.3661 52.172 5.85392C52.6162 6.34175 52.9547 6.92059 53.1877 7.59044C53.428 8.25301 53.5481 8.97019 53.5481 9.74198V10.7468H45.9031ZM50.927 8.79181C50.8906 8.44232 50.8032 8.1256 50.6648 7.84164C50.5265 7.55768 50.3481 7.31377 50.1297 7.1099C49.9113 6.89875 49.6528 6.73857 49.3543 6.62935C49.0557 6.51286 48.7281 6.45461 48.3713 6.45461C48.0437 6.45461 47.7379 6.5165 47.4539 6.64027C47.1772 6.76405 46.9297 6.93151 46.7113 7.14266C46.5001 7.35381 46.3217 7.60137 46.1761 7.88532C46.0378 8.16928 45.9468 8.47145 45.9031 8.79181H50.927Z" fill="white"/>
<path d="M57.8075 12.8328V15.6177H54.8478V12.8328H57.8075Z" fill="white"/>
</svg>
