<svg width="578" height="512" viewBox="0 0 578 512" fill="none" xmlns="http://www.w3.org/2000/svg">
<path fill-rule="evenodd" clip-rule="evenodd" d="M683.303 137.074C683.303 169.844 678.693 201.594 669.983 231.554C652.703 291.834 619.213 345.194 574.493 386.814C542.523 416.624 504.783 440.324 463.233 456.094C425.573 470.424 384.813 478.204 342.103 478.204C336.053 478.204 329.933 478.064 323.953 477.704H323.883C314.953 477.274 306.093 476.404 297.383 475.324C231.493 466.684 171.653 439.314 123.113 398.554C104.893 383.364 88.3329 366.224 73.7129 347.494C62.6229 333.454 52.613 318.544 43.833 302.774C41.743 299.024 39.7229 295.214 37.7129 291.394C37.7129 291.254 37.643 291.174 37.573 291.034C35.483 286.934 33.5428 282.824 31.6628 278.644H31.593C25.683 265.614 20.503 252.144 16.323 238.314C13.153 228.374 10.493 218.154 8.33301 207.784C8.26301 207.714 8.26294 207.564 8.26294 207.494C6.75294 200.224 5.45287 192.874 4.44287 185.454C2.14287 169.614 0.98291 153.484 0.98291 137.064C0.98291 127.634 1.34288 118.194 2.20288 108.984C2.63288 103.074 3.283 97.2438 4.073 91.4138C8.463 57.8538 17.8328 25.8839 31.3628 -3.85614C37.9928 -18.4761 45.6229 -32.5161 54.1929 -45.9861C68.4529 -68.4561 85.303 -89.0461 104.313 -107.556C165.743 -167.326 249.633 -204.126 342.103 -204.126C345.703 -204.126 349.303 -204.056 352.833 -203.986C356.653 -203.846 360.463 -203.696 364.283 -203.406C383.873 -202.106 403.023 -199.226 421.533 -194.766C432.333 -192.176 442.923 -189.146 453.293 -185.546C460.353 -183.166 467.263 -180.506 474.103 -177.626C479.213 -175.466 484.183 -173.236 489.153 -170.856C490.013 -170.426 490.883 -170.066 491.743 -169.636C524.873 -153.436 554.893 -132.116 580.963 -106.556C584.703 -102.956 588.313 -99.2161 591.913 -95.3961C594.293 -92.8061 596.663 -90.1361 598.973 -87.4761C602.933 -83.0161 606.753 -78.3261 610.493 -73.6461C624.103 -56.3661 636.053 -37.7861 646.063 -18.0561C657.803 4.84388 667.023 29.2539 673.283 54.8239C679.833 81.1839 683.293 108.694 683.293 137.064L683.303 137.074Z" fill="url(#paint0_radial_7_1132)"/>
<path fill-rule="evenodd" clip-rule="evenodd" d="M491.733 -164.616C490.613 -164.496 489.483 -164.376 488.363 -164.146C484.513 -163.436 481.503 -163.786 477.713 -164.856C474.993 -165.626 473.033 -166.746 470.133 -167.226C465.993 -167.876 462.143 -169.656 458.003 -170.186C453.623 -170.776 449.833 -172.496 445.693 -173.976C442.443 -175.156 440.723 -174.746 437.583 -173.976C434.443 -173.146 432.253 -174.446 429.473 -175.636C426.333 -176.996 423.203 -177.236 419.883 -177.886C411.243 -179.666 402.663 -182.446 394.083 -184.636C388.753 -185.996 383.843 -185.996 378.403 -186.056C374.143 -186.116 370.293 -184.876 366.033 -184.876C363.193 -184.876 360.763 -185.346 357.923 -185.766C355.023 -186.296 352.063 -185.706 349.163 -186.116C344.843 -186.766 342.533 -187.416 338.153 -186.056C334.903 -184.996 332.353 -185.106 329.103 -184.936C325.493 -184.756 321.413 -183.816 317.863 -182.986C311.473 -181.506 304.493 -180.326 297.923 -180.446C293.903 -180.446 287.983 -181.566 284.133 -180.206C281.643 -179.316 280.403 -176.656 278.693 -174.876C275.383 -171.446 271.293 -168.366 268.513 -164.516C265.733 -160.666 262.593 -156.706 262.833 -151.856C263.073 -147.656 265.023 -142.746 266.853 -138.896C268.743 -134.816 269.393 -131.086 265.193 -128.366C259.923 -124.876 253.833 -121.676 247.793 -119.966C243.773 -118.786 240.163 -118.076 236.783 -120.976C235.543 -122.046 234.773 -124.116 233.233 -124.946C231.633 -125.776 229.973 -124.946 228.263 -124.416C224.003 -123.176 219.863 -121.756 215.543 -121.046C212.883 -120.636 210.573 -119.216 207.963 -118.736C204.823 -118.146 202.573 -120.456 199.323 -119.686C194.763 -118.616 190.213 -116.726 185.473 -116.486C182.103 -116.306 177.843 -117.786 175.003 -119.506C173.343 -120.456 172.933 -121.396 171.033 -120.866C169.493 -120.506 167.183 -118.616 166.353 -117.436C165.233 -115.836 164.813 -113.766 163.693 -112.106C162.513 -110.276 161.383 -108.496 160.323 -106.546C158.373 -102.756 156.063 -99.2061 153.573 -95.8361C151.803 -93.4661 150.553 -90.2761 148.603 -88.0861C147.593 -86.9061 145.403 -86.0761 144.103 -85.1861C140.553 -82.6961 136.823 -80.4561 133.393 -77.7861C126.763 -72.5761 120.493 -66.8361 113.743 -61.8061C108.593 -57.9561 101.373 -55.7061 95.5131 -53.2861C91.8431 -51.8061 88.0529 -50.7361 84.3829 -49.2061C83.2029 -48.7361 81.0131 -48.1961 80.0031 -47.3161C78.7031 -46.1961 77.9931 -44.1161 76.8031 -42.5861C73.6031 -38.6761 70.2331 -34.7761 67.8031 -30.2761C66.3231 -27.6761 65.433 -25.0061 64.493 -22.1661C63.193 -18.3161 61.1231 -14.7661 59.8131 -10.9261C57.1531 -2.87613 56.613 5.52387 53.663 13.5139C51.943 18.1939 49.4631 22.4539 47.3331 26.7139C43.6631 33.9339 43.1331 42.5139 42.0631 50.5039C41.4731 55.1839 41.7131 60.5639 42.5331 65.1239C43.4231 70.0339 43.1829 75.1239 43.1229 80.1539C43.0629 85.4839 39.6931 90.6839 36.3131 94.7139C33.2331 98.4439 28.5629 99.8639 25.1329 103.174C22.2329 106.014 18.7431 109.274 17.5031 113.294C16.9731 115.074 17.443 117.084 17.153 118.974C16.383 123.174 15.323 127.144 14.723 131.404C14.073 136.674 13.953 141.644 13.953 146.964C13.953 149.624 13.7729 152.354 13.8929 155.014C14.0129 157.554 14.9629 159.924 15.1329 162.474C15.2529 164.254 14.8929 166.024 15.1329 167.804C15.4829 169.814 16.253 171.884 16.733 173.844C17.913 178.574 18.803 183.194 19.693 187.934C20.523 192.314 22.2329 196.634 23.6029 200.894C25.4929 206.694 26.7429 212.674 27.8629 218.704C28.7529 223.204 28.6931 227.874 29.3431 232.434C29.8731 236.104 30.7029 239.834 30.8829 243.504C31.0629 249.064 29.7029 254.634 29.6429 260.254C29.5829 269.724 33.3731 279.194 35.5631 288.304C36.2131 290.844 36.8631 293.454 37.5731 295.994C14.1331 249.714 0.942993 197.404 0.942993 142.014C0.942993 74.6639 20.4729 11.8839 54.1429 -41.0261C68.4629 -63.5161 85.2731 -84.1061 104.263 -102.576C165.753 -162.346 249.603 -199.156 342.103 -199.156C349.563 -199.156 356.893 -198.916 364.233 -198.446C409.743 -195.546 452.823 -183.706 491.703 -164.656L491.733 -164.616Z" fill="url(#paint1_linear_7_1132)"/>
<path style="mix-blend-mode:multiply" fill-rule="evenodd" clip-rule="evenodd" d="M363.873 302.384C363.873 302.384 395.723 349.414 437.883 387.554C480.033 425.694 486.223 451.324 486.223 451.324C486.223 451.324 565.893 418.004 622.743 339.104C679.593 260.204 363.873 302.384 363.873 302.384Z" fill="url(#paint2_linear_7_1132)"/>
<path style="mix-blend-mode:screen" fill-rule="evenodd" clip-rule="evenodd" d="M139.813 408.514C104.543 378.984 75.3131 342.414 54.3031 300.984C41.1031 274.944 31.1631 247.014 25.0131 217.724C24.9531 217.664 24.953 217.544 24.953 217.424C20.223 194.704 17.673 171.144 17.673 147.004C17.673 79.6539 37.2029 16.8739 70.8729 -36.0361C85.1929 -58.5261 102.003 -79.1161 120.993 -97.5861C182.483 -157.356 266.333 -194.166 358.833 -194.166C366.293 -194.166 373.623 -193.926 380.963 -193.456C404.093 -191.976 426.583 -188.146 448.213 -182.276C421.553 -191.016 393.413 -196.536 364.263 -198.406C356.923 -198.876 349.583 -199.116 342.133 -199.116C249.633 -199.116 165.783 -162.306 104.293 -102.536C85.2931 -84.0761 68.493 -63.4761 54.173 -40.9861C20.503 11.9239 0.973022 74.7039 0.973022 142.054C0.973022 166.194 3.51305 189.754 8.25305 212.474C8.25305 212.594 8.25311 212.714 8.31311 212.774C14.4631 242.064 24.4129 270.004 37.6029 296.034C58.6129 337.454 87.8429 374.034 123.113 403.564C160.493 434.924 204.623 458.344 253.023 471.414C211.153 457.754 172.853 436.234 139.813 408.514Z" fill="url(#paint3_radial_7_1132)"/>
<path style="mix-blend-mode:multiply" opacity="0.4" fill-rule="evenodd" clip-rule="evenodd" d="M421.533 -189.766C403.023 -194.236 383.873 -197.116 364.283 -198.406C360.463 -198.696 356.653 -198.836 352.833 -198.986C360.973 -194.446 368.533 -186.456 370.403 -178.246C373.503 -164.206 378.033 -151.166 380.633 -137.126C383.223 -123.296 382.723 -106.156 376.453 -93.6261C372.493 -85.7061 367.813 -78.9361 361.543 -72.4561C357.083 -67.9161 353.263 -65.3961 350.093 -59.7861C346.923 -54.3161 343.903 -48.9861 340.303 -43.7961C334.973 -36.0161 329.353 -27.7361 323.233 -20.6061C321.073 -18.0161 318.693 -16.2161 316.753 -13.1861C314.303 -9.43611 313.153 -5.91613 310.483 -2.95613C304.363 3.88387 294.853 7.70387 286.433 10.7939C275.483 14.8939 266.193 19.5039 255.903 24.9839C241.433 32.6139 229.543 42.4139 212.623 42.8439C207.003 42.9839 201.173 42.1939 195.553 42.7039C188.563 43.2839 182.083 46.6639 175.173 47.9639C169.123 49.1139 163.073 50.3439 157.023 51.3539C147.083 52.8639 138.873 56.2539 129.293 58.5539C116.833 61.6539 103.803 60.8539 91.2731 62.5839C79.9631 64.0939 70.173 65.4639 58.943 62.7239C41.593 58.4039 32.303 50.1939 35.973 31.7539C38.423 19.6539 37.5629 10.4339 31.3629 1.14388C17.8229 30.8839 8.46312 62.8638 4.07312 96.4138C12.2831 99.8738 21.643 101.674 28.913 102.394C54.193 104.984 81.4131 93.6839 104.523 85.0439C116.333 80.5839 128.363 74.0938 141.103 72.6538C154.493 71.2138 166.303 72.8739 179.703 69.5539C225.863 58.1739 271.373 42.0439 312.563 17.6339C329.633 7.55387 337.193 -6.85611 349.073 -21.4661C359.513 -34.2161 371.253 -44.7961 383.713 -55.4561C395.953 -65.8961 406.753 -76.2661 414.033 -90.8861C421.743 -106.296 428.293 -123.216 431.823 -140.146C435.563 -158.006 430.963 -175.216 421.523 -189.766H421.533ZM419.233 -143.386C418.513 -139.566 418.013 -135.466 416.853 -131.866C413.903 -122.716 408.433 -113.286 399.863 -108.466C395.903 -106.236 390.643 -107.606 388.343 -111.566C387.123 -113.726 387.123 -116.466 386.683 -118.836C385.823 -123.516 385.243 -128.126 385.313 -132.956C385.453 -144.546 385.023 -155.716 383.943 -167.306C385.163 -160.756 383.653 -177.026 393.883 -181.496C398.703 -183.656 405.983 -181.716 409.653 -177.966C414.263 -173.286 415.343 -165.366 417.073 -159.246C418.583 -153.776 420.243 -149.166 419.233 -143.406V-143.386Z" fill="url(#paint4_linear_7_1132)"/>
<path style="mix-blend-mode:multiply" opacity="0.4" fill-rule="evenodd" clip-rule="evenodd" d="M369.823 401.244C368.813 401.384 367.883 401.604 366.943 401.674L373.713 402.324C372.853 402.104 371.403 401.604 369.823 401.244ZM369.823 401.244C368.813 401.384 367.883 401.604 366.943 401.674L373.713 402.324C372.853 402.104 371.403 401.604 369.823 401.244ZM673.283 59.8339C673.143 68.7639 670.623 77.6239 670.403 86.6239C670.183 98.5739 668.173 107.864 665.073 119.394C662.913 127.314 658.883 133.144 656.213 140.784C653.193 149.574 648.863 157.064 644.403 165.124C635.543 181.254 626.693 197.384 622.873 215.674C619.413 232.164 618.693 246.064 610.483 261.184C602.633 275.734 590.753 287.824 582.323 301.944C578.363 308.714 575.623 308.354 569.653 312.604C562.953 317.354 556.833 324.844 550.353 330.104C536.383 341.264 523.633 348.974 506.713 355.304C496.123 359.334 485.833 362.504 474.593 364.234C467.243 365.384 460.043 364.234 452.773 365.454C441.253 367.324 430.303 370.784 419.213 374.384C400.993 380.294 382.413 383.674 364.263 389.294C351.593 393.184 339.203 395.484 326.313 398.224C318.463 399.884 312.123 404.134 303.993 402.474C295.783 400.744 288.293 398.014 280.223 395.484C269.923 392.314 261.423 392.104 250.333 392.104C235.573 392.104 218.433 394.334 203.883 391.524C187.463 388.354 171.113 383.964 154.693 380.574C144.753 378.484 137.193 374.384 128.123 370.134C119.623 366.174 110.483 365.024 101.623 362.214C92.2629 359.264 83.263 354.864 73.683 352.494C88.303 371.214 104.863 388.354 123.083 403.554C171.623 444.314 231.463 471.684 297.353 480.324C306.063 481.404 314.923 482.264 323.853 482.704H323.923C343.223 478.314 362.093 472.624 381.533 466.644C413.863 456.564 441.803 437.044 474.143 427.544C486.173 423.944 496.973 420.054 508.203 414.514C516.483 410.414 525.273 409.334 533.623 405.724C563.653 392.974 586.263 363.814 599.663 335.224C605.713 322.264 611.543 307.574 622.423 297.854C626.883 293.824 632.213 290.294 636.103 285.754C640.493 280.784 643.443 274.594 647.333 269.194C654.173 259.544 660.803 249.824 667.643 240.104C668.503 238.954 669.303 237.804 669.943 236.574C678.653 206.614 683.263 174.854 683.263 142.094C683.263 113.724 679.803 86.2139 673.253 59.8539L673.283 59.8339ZM360.313 403.694C361.533 402.904 363.553 401.244 364.853 400.884C366.153 400.454 368.093 400.814 369.823 401.244C372.343 400.884 374.863 400.594 377.243 401.604C378.613 402.254 381.203 403.474 381.783 405.064C382.433 406.574 381.563 407.514 380.563 408.524C379.263 409.824 378.263 409.824 376.463 410.184C372.713 410.904 369.043 411.554 365.153 411.194C362.853 410.974 359.393 410.834 357.953 408.674C356.583 406.584 358.603 404.854 360.333 403.704L360.313 403.694ZM382.713 448.194C380.623 450.854 378.533 453.594 375.803 455.614C373.213 457.634 370.333 458.854 367.523 460.434C360.613 464.324 353.483 468.504 345.703 470.514C342.603 471.304 339.513 471.164 336.273 471.374C332.383 471.734 328.563 471.804 324.683 471.874C320.073 471.944 315.613 472.884 311.003 473.174C306.393 473.394 301.853 473.534 297.253 473.824C289.623 474.324 282.853 473.034 275.653 470.444C269.173 468.064 262.473 465.044 256.643 461.154C252.543 458.414 249.013 454.534 245.483 451.074C242.173 447.974 239.503 444.664 237.633 440.484C236.983 438.974 236.263 437.384 236.623 435.734C236.763 434.944 237.123 434.294 237.123 434.074C238.423 433.064 239.713 432.134 240.943 431.624C243.393 430.544 246.123 430.034 248.723 429.754C254.993 428.894 261.833 429.974 268.093 430.474C271.833 430.764 275.153 430.974 278.823 430.404C283.723 429.684 288.613 428.174 293.373 426.874C304.893 423.774 316.203 421.334 328.083 420.034C339.893 418.734 352.283 417.444 364.163 419.454C368.623 420.174 374.033 421.474 377.923 424.064C380.803 426.004 383.103 429.104 384.693 432.204C387.433 437.464 386.273 443.654 382.753 448.194H382.713ZM473.093 418.594C471.003 421.044 467.983 422.484 465.383 424.284C461.783 426.804 457.963 428.824 454.223 430.984C451.053 432.854 448.033 434.374 444.713 435.884C441.473 437.394 438.163 438.914 434.923 440.564C431.393 442.364 427.573 443.584 423.833 444.884C421.093 445.894 418.143 447.114 415.193 446.614C412.813 446.114 410.153 445.174 408.423 443.374C405.833 440.634 406.263 437.684 407.123 436.464C407.123 433.944 406.403 430.344 407.193 427.894C407.693 426.454 409.423 424.294 410.223 422.854C413.243 417.384 417.563 413.424 422.103 409.104C426.063 405.284 429.883 402.404 435.213 400.534C441.193 398.514 448.033 398.014 454.223 397.224C460.993 396.434 472.443 395.924 475.463 403.704C477.553 409.104 476.833 414.074 473.083 418.614L473.093 418.594ZM373.713 402.324C372.853 402.104 371.403 401.604 369.823 401.244C368.813 401.384 367.883 401.604 366.943 401.674L373.713 402.324Z" fill="url(#paint5_linear_7_1132)"/>
<path style="mix-blend-mode:multiply" opacity="0.4" fill-rule="evenodd" clip-rule="evenodd" d="M646.073 -13.0461V-11.6761C645.643 -2.24615 641.823 4.23386 638.443 12.8039C635.703 19.7139 632.533 25.9139 629.013 32.4639C623.033 43.4139 620.223 53.7039 615.833 65.4439C608.993 83.8039 605.533 102.604 594.803 119.314C585.153 134.224 582.923 152.514 575.073 168.424C566.213 186.214 552.673 198.954 538.133 211.924C531.653 217.754 526.253 224.744 520.413 231.084C514.223 237.784 509.393 246.424 501.973 251.754C485.913 263.424 468.343 273.504 452.643 285.814C443.213 293.164 436.513 302.954 426.143 309.074C415.773 315.264 404.543 319.584 394.243 325.854C384.953 331.544 375.803 337.664 365.723 341.764C354.203 346.374 344.623 345.004 332.813 345.584C319.703 346.164 306.163 349.614 293.853 353.864C283.623 357.464 275.053 361.134 264.613 357.464C257.703 355.014 251.433 350.474 244.163 348.964C227.243 345.504 207.943 348.964 190.733 348.534C177.263 348.174 162.433 345.074 149.253 342.414C136.293 339.894 125.703 330.824 113.173 327.144C97.693 322.604 79.6129 326.494 64.6329 320.594C58.5129 318.214 52.6831 313.324 47.2731 309.934C46.1231 309.214 44.9731 308.494 43.8131 307.774C41.7231 304.024 39.703 300.214 37.693 296.394C41.363 297.904 45.0431 299.564 48.7831 301.364C68.3731 310.724 92.7829 309.284 113.883 312.954C137.643 317.134 161.413 323.324 185.393 326.064C195.113 327.144 204.913 327.074 214.563 325.994C228.103 324.484 242.143 324.694 255.463 322.394C278.653 318.294 301.263 307.344 325.313 310.444C329.773 311.024 334.743 313.394 339.283 313.324C345.983 313.104 350.593 307.274 355.993 303.894C365.503 297.914 375.513 299.064 383.863 291.224C392.073 283.514 401.143 278.554 411.153 273.504C437.223 260.254 458.323 238.724 478.773 218.274C495.913 201.204 512.543 183.134 524.283 161.814C535.803 140.864 533.503 115.944 542.143 94.1939C548.413 78.6339 553.663 64.0239 563.823 50.3339C568.723 43.7839 574.693 38.1639 579.883 31.8939C585.423 25.1939 588.813 17.9239 593.063 10.4339C597.743 2.08387 603.653 -5.62615 607.393 -14.4861C610.923 -22.9861 610.633 -30.4762 610.493 -39.3362C610.353 -49.0562 610.493 -58.9261 610.493 -68.6461C624.103 -51.3661 636.053 -32.7861 646.063 -13.0561L646.073 -13.0461Z" fill="url(#paint6_linear_7_1132)"/>
<path style="mix-blend-mode:multiply" opacity="0.4" fill-rule="evenodd" clip-rule="evenodd" d="M591.913 -90.3861C588.313 -94.2061 584.713 -97.9461 580.963 -101.546C554.893 -127.116 524.863 -148.426 491.743 -164.626C490.883 -165.056 490.013 -165.416 489.153 -165.846C484.183 -168.226 479.213 -170.456 474.103 -172.616C467.263 -175.496 460.343 -178.156 453.293 -180.536C455.523 -179.096 458.113 -177.946 458.983 -177.516C463.233 -175.356 466.693 -173.916 469.643 -170.096C472.523 -166.356 473.823 -163.546 474.033 -158.786C474.173 -154.326 474.823 -149.716 475.613 -145.246C476.333 -141.146 478.353 -137.256 479.213 -133.146C479.643 -130.696 480.003 -128.536 480.793 -126.086C482.593 -120.396 484.463 -114.776 485.693 -108.876C487.853 -98.3661 482.233 -89.6461 478.493 -80.0661C472.583 -64.8761 468.843 -49.4561 464.453 -33.7661C460.993 -21.3761 454.223 -9.13615 444.863 -0.206146C435.713 8.65385 422.183 10.6639 413.973 20.2439C406.773 28.6639 397.913 36.6638 387.763 41.4138C376.023 47.0338 363.633 51.3538 351.183 55.1638C342.253 57.8238 332.893 58.0439 323.893 60.4239C312.733 63.2339 302.503 68.8539 291.993 73.3839C280.833 78.2039 270.393 84.4038 259.153 89.2238C247.843 93.9738 237.333 100.454 226.103 105.064C220.633 107.294 214.873 108.374 209.323 110.324C197.803 114.354 186.643 121.704 174.393 123.144C170.143 123.644 165.823 124.654 161.643 124.654C158.263 124.724 155.233 125.084 151.993 126.314C141.333 130.494 134.783 142.514 122.543 142.584C111.313 142.584 100.223 142.154 89.0531 143.444C83.6531 144.094 78.2529 143.734 72.8529 143.804C71.2729 143.804 69.1831 144.164 67.5931 143.514C65.7931 142.794 63.773 141.064 61.973 140.054C57.943 137.824 54.053 134.944 50.453 132.204C43.393 126.734 34.0329 129.754 25.8929 128.104C23.4429 127.604 19.843 127.884 17.683 126.664C12.643 123.634 6.303 117.444 2.203 113.994C1.343 123.214 0.983032 132.644 0.983032 142.074C0.983032 158.494 2.13299 174.624 4.44299 190.464C5.45299 197.884 6.74306 205.224 8.26306 212.504C8.26306 212.574 8.26313 212.724 8.33313 212.794C10.4931 223.164 13.1531 233.394 16.3231 243.324C20.5031 257.154 25.6831 270.614 31.5931 283.654H31.663C40.953 285.164 50.5329 286.394 59.8929 285.024C73.2129 283.084 86.4631 280.994 100.003 281.494C112.673 282.074 124.493 286.394 136.873 288.484C150.773 290.784 165.243 292.664 179.363 293.594C192.253 294.384 205.073 295.464 217.893 296.904C227.543 298.054 237.193 299.934 246.843 300.574C271.903 302.304 296.393 295.754 321.013 293.154C333.323 291.854 345.573 288.764 357.663 286.164C365.083 284.584 372.283 282.634 378.833 278.604C387.473 273.204 392.943 264.924 400.653 258.364C409.153 251.094 418.013 244.034 426.863 237.264C434.423 231.504 441.553 225.234 449.473 220.124C455.523 216.164 461.573 212.414 467.263 207.954C478.423 199.164 487.283 189.014 496.503 178.354C509.393 163.374 514.723 142.564 519.903 123.984C524.583 106.914 527.823 89.8539 537.183 74.5139C541.793 67.0239 545.253 58.3839 547.413 49.8839C548.783 44.5539 549.283 38.5739 551.733 33.5339C555.623 25.3239 563.253 19.4239 567.933 11.6439C571.603 5.52386 575.713 -0.166127 578.303 -6.93613C583.343 -20.2561 587.163 -33.2161 589.323 -47.4061C590.903 -57.8461 594.293 -67.4261 597.533 -77.4361C598.033 -79.0961 598.543 -80.7461 598.973 -82.4761C596.673 -85.1361 594.293 -87.8061 591.913 -90.3961V-90.3861ZM147.953 142.724C148.673 140.924 161.423 135.954 163.363 135.374C163.293 135.444 163.143 135.514 162.933 135.594L154.583 139.194C163.803 136.094 180.433 145.464 172.373 156.044C169.993 159.144 163.803 160.654 160.133 161.234C156.463 161.884 154.153 160.654 151.923 157.494C150.053 154.754 148.683 150.004 148.173 146.764C147.953 145.614 147.453 143.884 147.953 142.734V142.724ZM46.3431 234.614C36.4031 231.874 29.783 228.204 23.663 219.854C19.703 214.454 16.243 209.054 15.163 202.424C14.303 196.954 12.143 192.054 13.433 186.584C14.443 182.264 16.173 177.514 18.183 173.474C20.413 168.934 23.7231 164.254 24.0131 162.744C33.9531 161.884 43.243 161.524 53.173 161.444C64.263 161.374 75.3531 162.814 86.5131 162.884C91.5531 162.954 96.5931 163.174 101.563 162.094C106.393 161.154 111.073 159.864 115.963 159.074C124.463 157.634 132.383 156.624 140.373 160.874C146.423 164.114 149.233 170.814 152.043 176.864C153.633 180.324 154.563 182.774 154.563 186.654C154.633 191.334 154.343 195.944 153.773 200.624C153.553 202.354 153.343 204.154 153.053 205.884C146.073 221.154 126.843 226.194 112.513 231.524C91.5531 239.224 67.8631 240.454 46.3331 234.624L46.3431 234.614ZM199.733 267.304C195.273 278.534 176.473 282.574 165.673 283.004C160.343 283.224 153.933 282.144 149.253 279.334C146.663 277.754 143.923 274.724 142.413 272.064C141.193 270.044 138.453 266.304 132.903 267.964C134.053 261.774 136.003 255.864 138.593 250.174C141.043 247.434 143.633 244.844 146.303 242.394C151.343 237.854 156.963 233.894 163.013 230.804C172.443 226.054 182.313 229.584 191.383 233.754C197.503 236.564 202.253 240.744 203.553 247.434C205.063 255.064 202.543 260.464 199.733 267.314V267.304ZM326.043 265.144C322.583 273.424 317.763 275.294 310.123 279.184C301.193 283.724 290.323 287.104 280.233 287.174C275.053 287.244 270.223 284.794 265.543 282.924C262.443 281.704 259.063 280.904 256.613 278.604C249.843 272.414 248.763 263.334 252.943 265.214C250.353 259.664 248.693 253.984 248.043 248.004C249.193 247.064 249.913 245.844 250.273 244.334C253.873 237.564 260.573 231.944 267.193 228.204C279.003 221.434 294.053 220.644 306.653 225.904C312.193 228.204 315.723 231.014 319.903 235.264C321.843 237.284 324.583 239.154 326.093 241.604C329.833 247.874 328.683 258.814 326.023 265.154L326.043 265.144ZM364.853 263.844C362.913 265.424 359.163 268.524 356.643 268.024C354.553 267.594 350.593 263.344 351.243 261.114L349.873 259.744C352.893 255.064 355.923 250.314 358.873 245.484C363.483 247.504 367.583 247.214 370.393 252.254C372.983 256.934 368.303 261.044 364.853 263.844ZM461.423 37.3639C457.603 42.4739 452.563 47.3039 446.663 49.7539C439.243 52.8539 429.303 55.1539 428.943 43.9939C428.653 37.4439 429.733 32.6839 432.693 26.6439C436.943 18.0739 440.973 15.9138 449.183 11.6638C452.203 12.0238 455.373 12.7439 457.683 13.5339C462.293 15.0439 466.683 19.1539 467.333 24.0439C468.053 29.1539 464.383 33.5539 461.423 37.3639ZM551.513 -11.1761C547.913 0.0538521 543.083 10.9339 538.123 21.5939C532.073 34.7039 531.353 48.1639 528.333 61.9939C526.603 69.7739 522.933 78.3439 515.303 81.3639C511.993 82.6639 508.753 82.3739 505.073 82.3739C501.763 82.3739 495.643 83.5938 495.853 86.4738C493.913 81.0738 490.593 73.8039 489.303 67.6739C487.933 60.9039 487.363 53.6339 486.283 46.8639C485.133 39.7339 484.623 32.6039 483.903 25.4039C483.323 18.7039 481.963 11.6539 482.033 4.88385C482.323 -17.4361 494.633 -45.2361 515.593 -55.5361C522.003 -58.6361 528.343 -60.0761 535.393 -58.9161C543.603 -57.6961 548.283 -55.4561 551.953 -47.6061C556.923 -36.8061 554.973 -22.2561 551.523 -11.1661L551.513 -11.1761Z" fill="url(#paint7_linear_7_1132)"/>
<path style="mix-blend-mode:multiply" opacity="0.4" fill-rule="evenodd" clip-rule="evenodd" d="M452.213 10.0739C451.133 10.6539 450.123 11.1539 449.193 11.6539C447.323 11.3639 445.523 11.2939 444.013 11.4339L452.223 10.0639L452.213 10.0739Z" fill="url(#paint8_linear_7_1132)"/>
<path style="mix-blend-mode:multiply" opacity="0.4" fill-rule="evenodd" clip-rule="evenodd" d="M24.0231 162.734C23.5231 162.804 22.9429 162.804 22.3629 162.874C23.7329 162.014 24.2331 162.014 24.0231 162.734Z" fill="url(#paint9_linear_7_1132)"/>
<path fill-rule="evenodd" clip-rule="evenodd" d="M625.193 334.004C625.193 334.004 575.003 388.454 537.073 400.594L505.933 410.094C505.933 410.094 363.873 358.984 356.093 270.074C349.553 195.374 477.313 80.7239 511.883 67.0839C546.453 53.4339 586.933 61.1639 586.933 61.1639L625.193 334.004Z" fill="url(#paint10_linear_7_1132)"/>
<path fill-rule="evenodd" clip-rule="evenodd" d="M586.933 61.1639C556.973 51.6539 427.483 111.294 392.713 245.094C385.663 272.244 451.343 375.384 529.803 400.604C555.843 408.974 675.233 304.674 680.223 233.994C685.213 163.324 631.443 75.2939 586.943 61.1639H586.933Z" fill="url(#paint11_linear_7_1132)"/>
<path fill-rule="evenodd" clip-rule="evenodd" d="M401.063 260.744C419.543 109.224 557.313 59.8939 587.273 69.4039C608.913 76.2739 640.743 108.054 658.943 139.384C640.153 100.694 612.063 69.1439 586.933 61.1639C556.973 51.6539 427.483 111.294 392.713 245.094C390.263 254.524 396.613 273.144 409.213 294.474C402.323 279.924 400.193 267.954 401.063 260.744Z" fill="url(#paint12_linear_7_1132)"/>
<path style="mix-blend-mode:multiply" fill-rule="evenodd" clip-rule="evenodd" d="M147.733 423.084C147.733 423.084 178.613 434.404 201.123 428.264C201.123 428.264 209.773 355.234 182.253 308.514C154.733 261.804 108.093 332.394 108.093 332.394L97.423 377.104C97.423 377.104 123.373 408.324 147.733 423.094V423.084Z" fill="url(#paint13_linear_7_1132)"/>
<path fill-rule="evenodd" clip-rule="evenodd" d="M174.513 411.284L194.313 405.984C194.313 405.984 203.853 365.524 187.283 319.884C168.463 268.074 99.4831 229.344 89.2531 228.504C79.0231 227.674 68.923 250.964 68.923 250.964L174.523 411.274L174.513 411.284Z" fill="url(#paint14_linear_7_1132)"/>
<path fill-rule="evenodd" clip-rule="evenodd" d="M486.223 451.324L453.343 494.094C453.343 494.094 396.253 521.724 338.953 508.334L297.383 480.324L486.223 451.324Z" fill="url(#paint15_linear_7_1132)"/>
<path fill-rule="evenodd" clip-rule="evenodd" d="M54.1129 283.024C57.5529 267.304 71.4031 241.184 83.8131 238.634C96.2231 236.084 154.883 291.774 168.453 327.604C182.023 363.434 175.183 403.174 174.513 411.274C173.843 419.374 107.293 396.794 73.713 369.204C40.133 341.604 54.1129 283.024 54.1129 283.024Z" fill="url(#paint16_linear_7_1132)"/>
<path fill-rule="evenodd" clip-rule="evenodd" d="M168.453 327.614C154.873 291.784 96.2231 236.094 83.8131 238.644C79.0331 239.624 74.0331 244.124 69.5031 250.164C72.2831 247.634 75.1129 245.844 77.8829 245.274C90.2929 242.724 150.043 287.044 163.383 322.974C179.753 367.094 170.753 398.934 169.143 412.844C172.373 413.054 174.403 412.624 174.513 411.294C175.183 403.194 182.033 363.454 168.453 327.624V327.614Z" fill="url(#paint17_linear_7_1132)"/>
<path fill-rule="evenodd" clip-rule="evenodd" d="M353.713 175.434C338.973 168.544 355.693 103.904 370.193 89.8438C384.693 75.7838 422.403 108.644 427.403 135.524C432.393 162.394 387.463 191.224 353.713 175.444V175.434Z" fill="url(#paint18_linear_7_1132)"/>
<path fill-rule="evenodd" clip-rule="evenodd" d="M368.463 170.504C356.663 164.784 370.043 111.154 381.663 99.4939C393.283 87.8239 423.483 115.094 427.483 137.394C431.483 159.694 395.493 183.604 368.463 170.514V170.504Z" fill="url(#paint19_linear_7_1132)"/>
<path fill-rule="evenodd" clip-rule="evenodd" d="M372.903 145.604C375.153 146.494 377.383 147.424 379.593 148.394C380.313 147.764 381.393 147.884 382.233 147.324C383.313 146.604 384.293 145.094 384.713 143.834C385.343 141.924 384.373 140.374 383.493 138.914C382.913 137.944 382.343 136.514 381.453 135.854C380.413 135.084 378.383 135.384 377.293 135.904C375.953 136.544 374.963 137.924 374.073 139.154C373.233 140.304 372.253 142.224 372.213 143.674C372.173 145.234 373.413 146.884 374.553 147.684L372.893 145.614L372.903 145.604Z" fill="#0EDBFF"/>
<path fill-rule="evenodd" clip-rule="evenodd" d="M54.8431 315.664C57.0931 316.554 59.323 317.484 61.533 318.454C62.243 317.824 63.3229 317.944 64.1729 317.384C65.2529 316.664 66.2329 315.154 66.6529 313.894C67.2829 311.984 66.313 310.434 65.433 308.974C64.853 308.004 64.2829 306.574 63.3929 305.914C62.3529 305.134 60.323 305.444 59.233 305.964C57.893 306.604 56.903 307.984 56.013 309.214C55.173 310.364 54.1929 312.284 54.1529 313.734C54.1129 315.294 55.353 316.944 56.493 317.744L54.8331 315.674L54.8431 315.664Z" fill="#0EDBFF"/>
<path fill-rule="evenodd" clip-rule="evenodd" d="M437.373 202.164C436.413 202.834 435.623 203.684 435.023 204.694C435.943 205.854 436.393 206.944 437.973 207.394C438.603 207.574 439.273 207.594 439.783 207.094C440.443 206.454 440.083 205.744 440.263 205.114C440.693 203.584 441.113 203.184 440.253 201.784C439.733 200.944 439.373 200.604 438.453 200.604C437.813 200.604 436.413 200.784 436.093 201.494L437.383 202.154L437.373 202.164Z" fill="#0EDBFF"/>
<path fill-rule="evenodd" clip-rule="evenodd" d="M442.483 237.834C442.313 238.224 440.583 242.624 442.833 241.354C443.963 240.714 443.563 238.984 442.793 238.484C442.833 238.344 442.873 238.194 442.913 238.054L442.483 237.834Z" fill="#0EDBFF"/>
<path fill-rule="evenodd" clip-rule="evenodd" d="M555.113 302.804C553.603 304.774 553.413 305.574 552.733 307.614C553.373 308.214 554.633 308.544 555.473 308.514C556.793 308.454 556.853 308.034 556.893 306.774C556.923 305.754 557.343 304.954 557.103 303.974C556.853 302.974 555.853 301.944 554.693 302.584L555.123 302.804H555.113Z" fill="#0EDBFF"/>
<path fill-rule="evenodd" clip-rule="evenodd" d="M460.153 206.474C461.013 207.264 461.553 208.244 461.773 209.414C460.573 209.714 460.433 208.534 460.253 207.604C459.973 206.114 460.663 206.574 461.363 205.384C461.493 205.414 461.623 205.444 461.753 205.464L460.143 206.484L460.153 206.474Z" fill="#0EDBFF"/>
<path fill-rule="evenodd" clip-rule="evenodd" d="M568.143 110.024C567.183 110.694 566.403 111.534 565.793 112.544C566.363 113.244 566.093 114.524 567.413 114.424C568.343 114.354 569.113 113.354 569.553 112.584C570.073 111.694 570.123 110.964 570.183 109.994C570.213 109.504 570.213 107.394 569.313 108.784L568.133 110.024H568.143Z" fill="#0EDBFF"/>
<path fill-rule="evenodd" clip-rule="evenodd" d="M69.3231 290.084C71.8631 289.394 74.0329 288.074 75.8629 286.114C74.0429 284.984 70.0431 282.634 69.3231 286.064V290.084Z" fill="#0EDBFF"/>
<path fill-rule="evenodd" clip-rule="evenodd" d="M69.3231 344.914C71.8631 344.224 74.0329 342.904 75.8629 340.944C74.0429 339.814 70.0431 337.464 69.3231 340.894V344.914Z" fill="#0EDBFF"/>
<path fill-rule="evenodd" clip-rule="evenodd" d="M455.223 148.694C457.753 145.594 461.393 139.924 465.973 143.034C468.633 144.834 469.393 149.614 466.853 151.514C464.493 153.274 462.333 153.774 459.673 154.504C457.643 155.064 454.613 153.714 455.223 150.704V148.694Z" fill="#0EDBFF"/>
<path fill-rule="evenodd" clip-rule="evenodd" d="M540.843 289.864C543.373 286.764 547.013 281.094 551.593 284.204C554.253 286.004 555.013 290.784 552.473 292.684C550.113 294.444 547.953 294.944 545.293 295.674C543.263 296.234 540.233 294.884 540.843 291.874V289.864Z" fill="#0EDBFF"/>
<path fill-rule="evenodd" clip-rule="evenodd" d="M513.933 326.454C516.463 323.354 520.103 317.694 524.683 320.794C527.343 322.594 528.103 327.374 525.563 329.274C523.203 331.034 521.043 331.534 518.383 332.264C516.353 332.824 513.323 331.474 513.933 328.464V326.454Z" fill="#0EDBFF"/>
<path fill-rule="evenodd" clip-rule="evenodd" d="M397.223 144.014C393.993 146.064 388.553 148.614 388.003 153.044C387.673 155.724 388.903 157.294 391.323 158.454C393.383 159.444 396.473 159.524 398.533 158.484C401.493 156.994 404.913 154.524 406.243 151.374C407.203 149.104 407.043 147.544 405.973 145.284C405.403 144.074 404.253 142.624 402.953 142.174C398.823 140.744 396.343 144.794 393.283 146.624L397.213 144.004L397.223 144.014Z" fill="#0EDBFF"/>
<path fill-rule="evenodd" clip-rule="evenodd" d="M407.693 132.234C409.453 132.854 410.943 133.844 412.153 135.174C410.393 135.774 408.513 137.164 406.713 136.524C404.383 135.694 403.943 133.474 404.473 131.244C404.763 130.024 406.953 127.884 408.203 128.424C408.833 128.694 408.953 129.554 409.163 130.104C409.603 131.264 409.623 131.014 409.003 132.234H407.693Z" fill="#0EDBFF"/>
<path fill-rule="evenodd" clip-rule="evenodd" d="M496.913 112.764C488.363 120.254 480.323 129.214 475.793 139.934C473.483 145.394 477.583 145.664 482.543 144.704C492.153 142.824 501.813 140.174 511.303 137.734C516.923 136.294 524.983 133.324 528.893 128.554C531.883 124.894 533.133 118.584 532.473 113.984C531.553 107.544 526.973 105.034 521.123 103.424C507.763 99.7238 488.803 114.144 483.843 126.454L496.913 112.774V112.764Z" fill="#0EDBFF"/>
<path fill-rule="evenodd" clip-rule="evenodd" d="M449.283 161.394C452.053 161.474 454.633 162.144 457.023 163.404C456.333 164.224 456.553 165.334 456.193 166.294C455.653 167.714 454.303 169.154 453.033 169.964C450.903 171.314 447.373 171.804 445.013 170.914C437.853 168.194 448.833 159.704 451.253 162.704L449.293 161.394H449.283Z" fill="#0EDBFF"/>
<path fill-rule="evenodd" clip-rule="evenodd" d="M49.483 434.934C48.523 435.604 47.7329 436.454 47.1329 437.464C48.0529 438.614 48.5031 439.714 50.0831 440.164C50.7131 440.344 51.3829 440.364 51.8929 439.864C52.5529 439.224 52.1929 438.514 52.3729 437.884C52.8029 436.354 53.2229 435.954 52.3629 434.554C51.8429 433.714 51.4831 433.374 50.5631 433.374C49.9231 433.374 48.523 433.554 48.203 434.264L49.493 434.924L49.483 434.934Z" fill="#0EDBFF"/>
<path fill-rule="evenodd" clip-rule="evenodd" d="M54.5932 470.604C54.4232 470.994 52.693 475.394 54.943 474.124C56.073 473.484 55.673 471.754 54.903 471.254C54.943 471.114 54.9831 470.964 55.0231 470.824L54.5932 470.604Z" fill="#0EDBFF"/>
<path fill-rule="evenodd" clip-rule="evenodd" d="M72.2631 439.244C73.1231 440.034 73.6629 441.014 73.8829 442.184C72.6829 442.484 72.5429 441.304 72.3629 440.374C72.0829 438.884 72.773 439.344 73.473 438.154C73.603 438.184 73.7329 438.214 73.8629 438.234L72.2531 439.254L72.2631 439.244Z" fill="#0EDBFF"/>
<path fill-rule="evenodd" clip-rule="evenodd" d="M61.393 394.164C64.163 394.244 66.743 394.914 69.133 396.174C68.443 396.994 68.6632 398.104 68.3032 399.064C67.7632 400.484 66.413 401.924 65.143 402.734C63.013 404.074 59.483 404.574 57.123 403.684C49.963 400.964 60.943 392.474 63.363 395.474L61.403 394.164H61.393Z" fill="#0EDBFF"/>
<path fill-rule="evenodd" clip-rule="evenodd" d="M544.953 100.444C543.773 101.294 534.733 106.314 539.033 108.494C541.343 109.664 545.893 109.324 548.243 108.324C550.333 107.434 552.453 106.064 551.143 103.654C548.493 98.7938 541.843 101.594 538.403 103.714L544.943 100.444H544.953Z" fill="#0EDBFF"/>
<path fill-rule="evenodd" clip-rule="evenodd" d="M72.5931 319.824C73.5431 325.124 74.633 330.924 79.243 334.434C84.023 338.064 89.4329 336.594 94.1229 333.824C97.6029 331.774 100.883 329.584 104.283 327.494C106.263 326.274 108.003 325.964 108.093 323.134C108.183 320.094 105.383 316.004 103.633 313.694C101.543 310.934 97.3231 307.634 94.0631 306.424C86.9431 303.764 73.3531 306.404 73.5131 316.094L72.5831 319.824H72.5931Z" fill="#0EDBFF"/>
<path fill-rule="evenodd" clip-rule="evenodd" d="M549.293 330.244C549.963 333.964 550.723 338.034 553.963 340.494C557.323 343.044 561.113 342.014 564.403 340.074C566.843 338.634 569.153 337.094 571.533 335.624C572.923 334.764 574.143 334.554 574.203 332.564C574.273 330.424 572.303 327.564 571.073 325.944C569.603 324.004 566.643 321.694 564.363 320.844C559.363 318.974 549.823 320.834 549.943 327.634L549.293 330.254V330.244Z" fill="#0EDBFF"/>
<path style="mix-blend-mode:screen" d="M616.998 359.214C649.949 345.565 665.597 307.788 651.948 274.836C638.299 241.884 600.522 226.237 567.57 239.886C534.619 253.535 518.971 291.312 532.62 324.263C546.269 357.215 584.046 372.863 616.998 359.214Z" fill="url(#paint20_radial_7_1132)"/>
<path style="mix-blend-mode:screen" d="M548.242 166.377C571.658 142.961 571.658 104.997 548.242 81.5809C524.826 58.165 486.861 58.165 463.446 81.5809C440.03 104.997 440.03 142.961 463.445 166.377C486.861 189.793 524.826 189.793 548.242 166.377Z" fill="url(#paint21_radial_7_1132)"/>
<path style="mix-blend-mode:screen" d="M90.3431 383.034C126.01 383.034 154.923 354.12 154.923 318.454C154.923 282.787 126.01 253.874 90.3431 253.874C54.6766 253.874 25.7631 282.787 25.7631 318.454C25.7631 354.12 54.6766 383.034 90.3431 383.034Z" fill="url(#paint22_radial_7_1132)"/>
<path style="mix-blend-mode:multiply" opacity="0.4" fill-rule="evenodd" clip-rule="evenodd" d="M363.873 302.384L393.453 258.904C393.453 258.904 431.383 366.794 529.793 400.594L508.233 414.494C508.233 414.494 407.913 385.944 363.873 302.384Z" fill="url(#paint23_linear_7_1132)"/>
<path style="mix-blend-mode:multiply" fill-rule="evenodd" clip-rule="evenodd" d="M419.883 -177.866C419.883 -177.866 561.773 -35.0361 663.893 28.4439C663.893 28.4439 654.013 -10.5861 626.493 -46.5261C626.493 -46.5261 540.763 -74.7161 419.883 -177.866Z" fill="url(#paint24_linear_7_1132)"/>
<path style="mix-blend-mode:screen" d="M252.856 49.1913C318.936 5.71842 349.911 -63.8669 322.04 -106.232C294.169 -148.597 218.007 -147.699 151.926 -104.226C85.8456 -60.7531 54.8706 8.83227 82.7416 51.1973C110.613 93.5623 186.775 92.6642 252.856 49.1913Z" fill="url(#paint25_radial_7_1132)"/>
<defs>
<radialGradient id="paint0_radial_7_1132" cx="0" cy="0" r="1" gradientUnits="userSpaceOnUse" gradientTransform="translate(130.843 -22.5161) scale(548.03 548.03)">
<stop stop-color="#60DBFF"/>
<stop offset="0.09" stop-color="#5FD5FF"/>
<stop offset="0.21" stop-color="#5EC4FF"/>
<stop offset="0.34" stop-color="#5CA8FF"/>
<stop offset="0.49" stop-color="#5A81FF"/>
<stop offset="0.64" stop-color="#5651FF"/>
<stop offset="0.68" stop-color="#5643FF"/>
<stop offset="0.74" stop-color="#553DF8"/>
<stop offset="0.83" stop-color="#542EE4"/>
<stop offset="0.93" stop-color="#5315C5"/>
<stop offset="1" stop-color="#5200AB"/>
</radialGradient>
<linearGradient id="paint1_linear_7_1132" x1="0.962993" y1="48.4639" x2="491.733" y2="48.4639" gradientUnits="userSpaceOnUse">
<stop offset="0.01" stop-color="#81E0FF"/>
<stop offset="0.32" stop-color="#82DDFF"/>
<stop offset="0.55" stop-color="#85D3FF"/>
<stop offset="0.75" stop-color="#8BC3FF"/>
<stop offset="0.94" stop-color="#93ADFF"/>
<stop offset="1" stop-color="#97A4FF"/>
</linearGradient>
<linearGradient id="paint2_linear_7_1132" x1="496.733" y1="451.324" x2="496.733" y2="291.124" gradientUnits="userSpaceOnUse">
<stop stop-color="#B8C2FF"/>
<stop offset="1" stop-color="#5B729C"/>
</linearGradient>
<radialGradient id="paint3_radial_7_1132" cx="0" cy="0" r="1" gradientUnits="userSpaceOnUse" gradientTransform="translate(92.813 -90.1661) scale(449.05)">
<stop stop-color="#FFFFD9"/>
<stop offset="1"/>
</radialGradient>
<linearGradient id="paint4_linear_7_1132" x1="4.07312" y1="-48.1061" x2="433.133" y2="-48.1061" gradientUnits="userSpaceOnUse">
<stop stop-color="#B8C2FF"/>
<stop offset="1" stop-color="#7D72B3"/>
</linearGradient>
<linearGradient id="paint5_linear_7_1132" x1="73.713" y1="271.264" x2="683.303" y2="271.264" gradientUnits="userSpaceOnUse">
<stop stop-color="#B8C2FF"/>
<stop offset="1" stop-color="#7D72B3"/>
</linearGradient>
<linearGradient id="paint6_linear_7_1132" x1="37.703" y1="145.174" x2="646.073" y2="145.174" gradientUnits="userSpaceOnUse">
<stop stop-color="#B8C2FF"/>
<stop offset="1" stop-color="#7D72B3"/>
</linearGradient>
<linearGradient id="paint7_linear_7_1132" x1="0.973032" y1="60.1539" x2="598.973" y2="60.1539" gradientUnits="userSpaceOnUse">
<stop stop-color="#B8C2FF"/>
<stop offset="1" stop-color="#7D72B3"/>
</linearGradient>
<linearGradient id="paint8_linear_7_1132" x1="444.003" y1="10.8639" x2="452.213" y2="10.8639" gradientUnits="userSpaceOnUse">
<stop stop-color="#E8DDFF"/>
<stop offset="1" stop-color="#AA8AD8"/>
</linearGradient>
<linearGradient id="paint9_linear_7_1132" x1="22.3629" y1="162.544" x2="24.0731" y2="162.544" gradientUnits="userSpaceOnUse">
<stop stop-color="#E8DDFF"/>
<stop offset="1" stop-color="#AA8AD8"/>
</linearGradient>
<linearGradient id="paint10_linear_7_1132" x1="457.273" y1="394.154" x2="568.333" y2="55.0739" gradientUnits="userSpaceOnUse">
<stop stop-color="#280077"/>
<stop offset="1" stop-color="#812CFF"/>
</linearGradient>
<linearGradient id="paint11_linear_7_1132" x1="489.004" y1="387.364" x2="594.975" y2="63.9109" gradientUnits="userSpaceOnUse">
<stop stop-color="#7A00B3"/>
<stop offset="1" stop-color="#B136FF"/>
</linearGradient>
<linearGradient id="paint12_linear_7_1132" x1="525.563" y1="294.464" x2="525.563" y2="60.1839" gradientUnits="userSpaceOnUse">
<stop stop-color="#8E00B3"/>
<stop offset="1" stop-color="#E05CFF"/>
</linearGradient>
<linearGradient id="paint13_linear_7_1132" x1="149.923" y1="430.084" x2="149.923" y2="292.534" gradientUnits="userSpaceOnUse">
<stop stop-color="#81A9CE"/>
<stop offset="1" stop-color="#5B729C"/>
</linearGradient>
<linearGradient id="paint14_linear_7_1132" x1="111.273" y1="390.574" x2="157.153" y2="250.504" gradientUnits="userSpaceOnUse">
<stop stop-color="#280077"/>
<stop offset="1" stop-color="#812CFF"/>
</linearGradient>
<linearGradient id="paint15_linear_7_1132" x1="391.803" y1="511.994" x2="391.803" y2="451.324" gradientUnits="userSpaceOnUse">
<stop stop-color="#7A00B3"/>
<stop offset="0.92" stop-color="#7006FC"/>
<stop offset="1" stop-color="#7006F9"/>
</linearGradient>
<linearGradient id="paint16_linear_7_1132" x1="114.023" y1="412.954" x2="114.023" y2="238.554" gradientUnits="userSpaceOnUse">
<stop stop-color="#7A00B3"/>
<stop offset="1" stop-color="#B136FF"/>
</linearGradient>
<linearGradient id="paint17_linear_7_1132" x1="123.163" y1="412.884" x2="123.163" y2="238.554" gradientUnits="userSpaceOnUse">
<stop stop-color="#8E00B3"/>
<stop offset="1" stop-color="#E05CFF"/>
</linearGradient>
<linearGradient id="paint18_linear_7_1132" x1="374.783" y1="182.694" x2="403.973" y2="93.5839" gradientUnits="userSpaceOnUse">
<stop stop-color="#5B008B"/>
<stop offset="1" stop-color="#8E00FF"/>
</linearGradient>
<linearGradient id="paint19_linear_7_1132" x1="384.953" y1="176.254" x2="409.093" y2="102.554" gradientUnits="userSpaceOnUse">
<stop stop-color="#A400CA"/>
<stop offset="1" stop-color="#B136FF"/>
</linearGradient>
<radialGradient id="paint20_radial_7_1132" cx="0" cy="0" r="1" gradientUnits="userSpaceOnUse" gradientTransform="translate(592.288 299.556) scale(64.58 64.58)">
<stop stop-color="#317AFF"/>
<stop offset="0.1" stop-color="#2967D7"/>
<stop offset="0.29" stop-color="#1C4896"/>
<stop offset="0.47" stop-color="#122E60"/>
<stop offset="0.64" stop-color="#0A1A37"/>
<stop offset="0.78" stop-color="#040B18"/>
<stop offset="0.91" stop-color="#010306"/>
<stop offset="1"/>
</radialGradient>
<radialGradient id="paint21_radial_7_1132" cx="0" cy="0" r="1" gradientUnits="userSpaceOnUse" gradientTransform="translate(505.84 123.983) scale(59.96)">
<stop stop-color="#317AFF"/>
<stop offset="0.1" stop-color="#2967D7"/>
<stop offset="0.29" stop-color="#1C4896"/>
<stop offset="0.47" stop-color="#122E60"/>
<stop offset="0.64" stop-color="#0A1A37"/>
<stop offset="0.78" stop-color="#040B18"/>
<stop offset="0.91" stop-color="#010306"/>
<stop offset="1"/>
</radialGradient>
<radialGradient id="paint22_radial_7_1132" cx="0" cy="0" r="1" gradientUnits="userSpaceOnUse" gradientTransform="translate(90.343 318.454) scale(64.58 64.58)">
<stop stop-color="#317AFF"/>
<stop offset="0.1" stop-color="#2967D7"/>
<stop offset="0.29" stop-color="#1C4896"/>
<stop offset="0.47" stop-color="#122E60"/>
<stop offset="0.64" stop-color="#0A1A37"/>
<stop offset="0.78" stop-color="#040B18"/>
<stop offset="0.91" stop-color="#010306"/>
<stop offset="1"/>
</radialGradient>
<linearGradient id="paint23_linear_7_1132" x1="446.833" y1="414.494" x2="446.833" y2="258.904" gradientUnits="userSpaceOnUse">
<stop stop-color="#B8C2FF"/>
<stop offset="1" stop-color="#7D72B3"/>
</linearGradient>
<linearGradient id="paint24_linear_7_1132" x1="541.893" y1="28.4439" x2="541.893" y2="-177.866" gradientUnits="userSpaceOnUse">
<stop stop-color="#81A9CE"/>
<stop offset="1" stop-color="#5B729C"/>
</linearGradient>
<radialGradient id="paint25_radial_7_1132" cx="0" cy="0" r="1" gradientUnits="userSpaceOnUse" gradientTransform="translate(210.882 -33.4534) rotate(-33.34) scale(143.486 91.9344)">
<stop stop-color="#06FEFF"/>
<stop offset="0.17" stop-color="#04C4C4"/>
<stop offset="0.4" stop-color="#037F7F"/>
<stop offset="0.6" stop-color="#014848"/>
<stop offset="0.78" stop-color="#002121"/>
<stop offset="0.92" stop-color="#000808"/>
<stop offset="1"/>
</radialGradient>
</defs>
</svg>
